<svg height="24" viewBox="0 0 24 24" width="24" xmlns="http://www.w3.org/2000/svg"><path d="m21.128906 6.476562c-.03125-.054687-.066406-.109374-.105468-.152343l-5.226563-5.222657c-.105469-.101562-.246094-.160156-.394531-.164062h-7.558594c-.488281 0-.957031.195312-1.300781.542969-.347657.34375-.542969.8125-.542969 1.300781v1.203125h-1.34375c-.488281 0-.957031.195313-1.300781.539063-.347657.347656-.542969.816406-.542969 1.304687v15.375c0 .488281.195312.957031.542969 1.304687.34375.34375.8125.539063 1.300781.539063h11.5c.484375 0 .953125-.191406 1.296875-.535156s.542969-.808594.546875-1.292969v-1.203125h1.34375c.488281 0 .957031-.195313 1.300781-.539063.347657-.347656.542969-.816406.542969-1.304687v-11.449219c0-.085937-.019531-.167968-.058594-.246094zm-5.164062-3.617187 3.300781 3.296875h-3.300781zm.910156 18.375c0 .1875-.074219.371094-.210938.507813-.136718.132812-.316406.210937-.507812.210937h-11.5c-.191406 0-.371094-.078125-.507812-.210937-.136719-.136719-.210938-.320313-.210938-.507813v-15.375c0-.191406.074219-.375.210938-.511719.136718-.132812.316406-.210937.507812-.210937h1.34375v13.035156c0 .488281.195312.957031.542969 1.304687.34375.34375.8125.539063 1.300781.539063h9.03125zm2.46875-2.328125h-11.5c-.09375 0-.1875-.019531-.277344-.054688-.089844-.039062-.167968-.089843-.234375-.160156-.070312-.070312-.121093-.148437-.15625-.238281-.035156-.089844-.054687-.183594-.050781-.28125v-15.375c-.003906-.09375.015625-.191406.050781-.28125.035157-.085937.085938-.167969.15625-.238281.066407-.066406.144531-.121094.234375-.160156.089844-.035157.183594-.054688.277344-.054688h6.996094v4.65625c0 .152344.058594.292969.164062.398438.105469.105468.25.164062.398438.164062h4.660156v10.875c.003906.097656-.015625.191406-.050781.28125-.035157.089844-.085938.171875-.15625.238281-.066407.070313-.144531.125-.234375.160157-.089844.039062-.183594.054687-.277344.054687zm0 0"/></svg>